<svg width="40" height="40" viewBox="0 0 40 40" fill="none" xmlns="http://www.w3.org/2000/svg">
<g clip-path="url(#clip0_276_590)">
<path d="M5.1454 0.360682C5.19773 0.360295 5.25005 0.359908 5.30396 0.359508C5.47915 0.358497 5.65429 0.359151 5.82949 0.3598C5.95641 0.359418 6.08334 0.358934 6.21026 0.358358C6.55896 0.357075 6.90764 0.357258 7.25633 0.357684C7.63243 0.357892 8.00852 0.356758 8.38461 0.355801C9.12139 0.354156 9.85816 0.353802 10.5949 0.353941C11.1937 0.354043 11.7926 0.353746 12.3914 0.353166C12.5638 0.353002 12.7362 0.352838 12.9086 0.352674C12.9944 0.352593 13.0802 0.352511 13.1686 0.352427C14.792 0.35095 16.4153 0.351032 18.0386 0.351565C19.5239 0.352001 21.0093 0.350374 22.4946 0.347787C24.0194 0.345152 25.5443 0.343966 27.0691 0.344328C27.9253 0.344503 28.7815 0.344092 29.6377 0.342148C30.3666 0.340508 31.0955 0.340225 31.8244 0.341703C32.1963 0.342419 32.5682 0.342506 32.9401 0.340894C33.2806 0.339435 33.6211 0.339781 33.9616 0.341562C34.0848 0.341889 34.2079 0.341559 34.331 0.3405C35.4394 0.331616 35.4394 0.331616 35.9048 0.670381C36.1181 0.884932 36.2238 1.12556 36.3275 1.40624C36.3658 1.50957 36.3658 1.50957 36.4048 1.61499C36.4919 1.86039 36.5743 2.10702 36.6558 2.35434C36.6869 2.44766 36.7181 2.54097 36.7502 2.63712C36.835 2.89118 36.9193 3.14543 37.0034 3.39973C37.0918 3.66651 37.1807 3.93312 37.2695 4.19975C37.4184 4.64699 37.567 5.09435 37.7153 5.54179C37.9056 6.11587 38.0965 6.68977 38.2875 7.26361C38.452 7.7578 38.6163 8.25206 38.7806 8.74634C38.8158 8.85226 38.851 8.95818 38.8862 9.0641C39.0019 9.41199 39.1173 9.75995 39.2327 10.1079C39.2619 10.1957 39.291 10.2834 39.3211 10.3738C39.3477 10.4542 39.3743 10.5346 39.4017 10.6174C39.4249 10.6872 39.448 10.757 39.4719 10.8288C39.5766 11.1617 39.6186 11.4421 39.6192 11.7935C39.6196 11.8894 39.6199 11.9852 39.6203 12.084C39.6203 12.1905 39.6203 12.297 39.6202 12.4036C39.6205 12.5166 39.6208 12.6297 39.6211 12.7427C39.6219 13.0538 39.6222 13.3648 39.6224 13.6758C39.6227 14.0111 39.6235 14.3464 39.6241 14.6817C39.6257 15.4915 39.6265 16.3013 39.6272 17.1112C39.6275 17.4924 39.6279 17.8736 39.6283 18.2548C39.6297 19.5217 39.6308 20.7887 39.6314 22.0556C39.6315 22.3843 39.6317 22.7131 39.6318 23.0418C39.6318 23.1235 39.6319 23.2052 39.6319 23.2894C39.6326 24.614 39.6346 25.9385 39.6371 27.2631C39.6397 28.6224 39.6411 29.9818 39.6413 31.3412C39.6415 32.1047 39.6422 32.8681 39.6442 33.6316C39.6459 34.2815 39.6465 34.9315 39.6457 35.5814C39.6454 35.9131 39.6455 36.2448 39.6471 36.5765C39.6484 36.8801 39.6484 37.1837 39.6471 37.4873C39.647 37.5972 39.6473 37.7071 39.6482 37.817C39.6563 38.836 39.6563 38.836 39.2962 39.2187C38.8987 39.569 38.6639 39.6209 38.1458 39.6198C38.0825 39.62 38.0191 39.6202 37.9538 39.6204C37.7392 39.6209 37.5247 39.6209 37.3101 39.6209C37.1556 39.6211 37.0011 39.6214 36.8467 39.6217C36.4204 39.6225 35.994 39.6228 35.5677 39.623C35.1087 39.6233 34.6496 39.6241 34.1905 39.6247C33.1335 39.6262 32.0764 39.627 31.0194 39.6277C30.4972 39.628 29.9751 39.6284 29.4529 39.6288C27.6662 39.6302 25.8794 39.6314 24.0926 39.632C23.9804 39.632 23.8682 39.632 23.756 39.6321C23.6726 39.6321 23.6726 39.6321 23.5874 39.6321C23.3055 39.6322 23.0235 39.6323 22.7416 39.6324C22.6577 39.6325 22.6577 39.6325 22.5721 39.6325C20.7576 39.6331 18.9431 39.6349 17.1286 39.6375C15.211 39.6401 13.2934 39.6417 11.3759 39.6419C11.1654 39.642 10.955 39.642 10.7446 39.6421C10.6928 39.6421 10.641 39.6421 10.5876 39.6421C9.80472 39.6423 9.02186 39.6433 8.23901 39.6448C7.34872 39.6465 6.45845 39.6471 5.56816 39.6464C5.11368 39.646 4.65921 39.6462 4.20473 39.6477C3.78893 39.649 3.37316 39.649 2.95737 39.6477C2.80669 39.6476 2.65601 39.6479 2.50533 39.6488C2.30094 39.65 2.09665 39.6493 1.89227 39.648C1.83338 39.6488 1.77449 39.6496 1.71382 39.6505C1.31378 39.6452 1.08949 39.5474 0.780622 39.2969C0.475522 38.9505 0.380495 38.7695 0.377329 38.3119C0.376499 38.2181 0.375669 38.1244 0.374814 38.0278C0.374281 37.9228 0.373757 37.8178 0.373242 37.7128C0.372426 37.6019 0.371578 37.4911 0.370701 37.3802C0.368395 37.0744 0.366597 36.7686 0.364896 36.4628C0.36338 36.2006 0.361579 35.9385 0.359787 35.6764C0.342816 33.1793 0.334026 30.6822 0.326911 28.1851C0.325965 27.859 0.325002 27.5329 0.324022 27.2068C0.323779 27.1258 0.323536 27.0448 0.323286 26.9613C0.31926 25.6563 0.311138 24.3514 0.301382 23.0465C0.29142 21.7028 0.285733 20.359 0.283911 19.0152C0.282776 18.2624 0.279802 17.5097 0.271967 16.7569C0.212591 10.8656 0.212591 10.8656 1.35287 8.27382C1.53825 7.85069 1.67367 7.41309 1.80969 6.97211C1.85385 6.83659 1.89829 6.70118 1.94308 6.56587C1.96418 6.50173 1.98529 6.43759 2.00703 6.37151C2.15087 5.93508 2.29506 5.49877 2.43954 5.06255C2.56423 4.68605 2.68852 4.30942 2.81201 3.93252C2.93503 3.55707 3.05896 3.18193 3.18355 2.80699C3.23 2.66669 3.27613 2.52628 3.32192 2.38576C3.3852 2.19172 3.44966 1.99812 3.51441 1.80457C3.53247 1.74826 3.55053 1.69194 3.56914 1.63393C3.72606 1.17165 3.91662 0.756572 4.34852 0.502154C4.63685 0.378568 4.83293 0.361095 5.1454 0.360682ZM5.93687 2.96874C5.74097 3.4585 5.55328 3.94053 5.38809 4.43986C5.36671 4.50385 5.34533 4.56785 5.3233 4.63379C5.25375 4.84214 5.18454 5.05061 5.11534 5.25908C5.06676 5.40492 5.01816 5.55075 4.96955 5.69657C4.86828 6.00048 4.76718 6.30443 4.6662 6.60844C4.53648 6.99891 4.40646 7.38928 4.27633 7.77962C4.17624 8.0799 4.07627 8.38022 3.97635 8.68055C3.92841 8.82463 3.88044 8.9687 3.83244 9.11276C3.76575 9.313 3.69921 9.51329 3.63272 9.7136C3.61276 9.77345 3.59279 9.83331 3.57222 9.89498C3.47781 10.1378 3.47781 10.1378 3.43687 10.3906C8.49 10.3906 13.5431 10.3906 18.7494 10.3906C18.7494 7.94139 18.7494 5.49218 18.7494 2.96874C14.5212 2.96874 10.2931 2.96874 5.93687 2.96874ZM21.2494 2.96874C21.2494 5.41796 21.2494 7.86718 21.2494 10.3906C26.3025 10.3906 31.3556 10.3906 36.5619 10.3906C35.7496 7.88485 35.7496 7.88485 34.9237 5.38363C34.8418 5.1376 34.7601 4.8915 34.6785 4.64536C34.599 4.40583 34.5192 4.16642 34.4394 3.92699C34.4103 3.83905 34.3811 3.75112 34.3511 3.66052C34.3244 3.5807 34.2977 3.50088 34.2703 3.41864C34.2469 3.34843 34.2235 3.27821 34.1994 3.20586C34.1536 3.04962 34.1536 3.04962 34.0619 2.96874C33.8968 2.96117 33.7314 2.95922 33.5661 2.95934C33.4875 2.95924 33.4875 2.95924 33.4073 2.95914C33.2305 2.95901 33.0537 2.95944 32.8769 2.95987C32.7506 2.95989 32.6244 2.95988 32.4981 2.95983C32.1543 2.95981 31.8105 2.96027 31.4667 2.96082C31.1078 2.9613 30.749 2.96135 30.3901 2.96144C29.71 2.96169 29.0299 2.96233 28.3498 2.96311C27.4311 2.96415 26.5124 2.96457 25.5938 2.96503C24.1456 2.96576 22.6975 2.96732 21.2494 2.96874ZM2.96812 12.9687C2.96812 20.9094 2.96812 28.85 2.96812 37.0312C14.2087 37.0312 25.4494 37.0312 37.0306 37.0312C37.0306 29.0906 37.0306 21.15 37.0306 12.9687C25.79 12.9687 14.5494 12.9687 2.96812 12.9687Z" fill="black"/>
<path d="M23.0387 18.1141C23.9286 18.914 24.5529 20.0279 24.6283 21.236C24.6461 21.9233 24.6184 22.501 24.2972 23.125C24.2637 23.1908 24.2303 23.2565 24.1959 23.3243C23.7089 24.1714 22.9559 24.9473 22.1878 25.5469C21.7383 26.0002 21.3991 26.4548 21.2259 27.0752C21.1065 27.4589 20.8894 27.6846 20.5472 27.8906C20.1697 28.0109 19.8181 28.0157 19.4437 27.8809C19.136 27.6802 18.9166 27.442 18.7503 27.1094C18.6592 26.1645 18.8425 25.4391 19.4241 24.6875C19.5365 24.5559 19.6505 24.4258 19.7659 24.2969C19.8296 24.2248 19.8932 24.1527 19.9588 24.0784C20.406 23.5812 20.8722 23.1059 21.3532 22.6412C21.6844 22.3169 21.9319 22.0594 21.9876 21.5821C21.9633 20.9975 21.6605 20.479 21.2503 20.0781C20.7608 19.7733 20.2693 19.6158 19.6878 19.6875C19.0958 19.8556 18.5837 20.1061 18.2669 20.6543C18.0834 21.05 18.0287 21.4799 17.9617 21.9074C17.8703 22.2693 17.7296 22.5397 17.4304 22.7704C17.0251 22.9636 16.6891 23.0683 16.2445 22.9117C15.9009 22.7561 15.6765 22.5893 15.4691 22.2656C15.1632 21.3482 15.4764 20.3753 15.8597 19.5362C16.4253 18.4153 17.3594 17.6475 18.5452 17.2315C20.0992 16.771 21.7886 17.0572 23.0387 18.1141Z" fill="black"/>
<path d="M20.5715 30.4648C20.8956 30.654 21.0838 30.8286 21.2499 31.1719C21.3144 31.6031 21.3084 31.9881 21.1181 32.3828C20.748 32.7829 20.508 32.9485 19.9707 32.9883C19.6104 32.9634 19.3636 32.8809 19.1055 32.6199C18.7526 32.2064 18.718 31.9441 18.7231 31.4105C18.7624 31.0614 18.8829 30.8588 19.1406 30.625C19.5605 30.3223 20.0912 30.268 20.5715 30.4648Z" fill="black"/>
</g>
<defs>
<clipPath id="clip0_276_590">
<rect width="40" height="40" fill="white"/>
</clipPath>
</defs>
</svg>
